<svg width="16" height="16" viewBox="0 0 16 16" fill="none" xmlns="http://www.w3.org/2000/svg">
<path d="M8.56933 2.33331C8.51262 2.23214 8.42999 2.14791 8.32992 2.08928C8.22985 2.03066 8.11597 1.99976 8 1.99976C7.88402 1.99976 7.77014 2.03066 7.67007 2.08928C7.57 2.14791 7.48737 2.23214 7.43066 2.33331C7.29733 2.57598 7.16911 2.82175 7.046 3.07064C6.65813 3.85795 6.32836 4.67256 6.05933 5.50798C5.96666 5.79531 5.692 5.99464 5.37733 6.00331C4.42347 6.02838 3.47272 6.12308 2.53266 6.28664C2.01666 6.37731 1.82266 6.96531 2.18933 7.32398C2.27288 7.4062 2.35733 7.48731 2.44266 7.56731C3.0807 8.16988 3.75532 8.7325 4.46266 9.25198C4.70733 9.43131 4.808 9.73864 4.71466 10.02C4.35912 11.0887 4.10467 12.1884 3.95466 13.3046C3.888 13.808 4.42666 14.1633 4.89466 13.9233C5.82269 13.4475 6.71011 12.8963 7.54799 12.2753C7.67923 12.1795 7.83751 12.1279 8 12.1279C8.16248 12.1279 8.32076 12.1795 8.452 12.2753C9.28971 12.8965 10.1772 13.4477 11.1053 13.9233C11.5727 14.1633 12.112 13.808 12.0453 13.3046C12.0196 13.1158 11.9913 12.928 11.9607 12.7413C11.8067 11.818 11.5809 10.9081 11.2853 10.02C11.192 9.73864 11.292 9.43131 11.5373 9.25198C12.3398 8.66397 13.0995 8.01968 13.8107 7.32398C14.1773 6.96531 13.984 6.37731 13.4673 6.28664C12.5274 6.12213 11.5766 6.02742 10.6227 6.00331C10.4718 6.00091 10.3254 5.95206 10.2034 5.86342C10.0813 5.77478 9.9896 5.65066 9.94066 5.50798C9.58646 4.40842 9.12723 3.34485 8.56933 2.33331Z" stroke="#B6B6B6" style="stroke:#B6B6B6;stroke:color(display-p3 0.7137 0.7137 0.7137);stroke-opacity:1;" stroke-linecap="round" stroke-linejoin="round"/>
</svg>
