<svg width="280" height="54" viewBox="0 0 280 54" fill="none" xmlns="http://www.w3.org/2000/svg">
<path d="M158.662 9.04395C158.834 9.04395 158.972 9.11285 159.075 9.25066C159.179 9.35402 159.213 9.49182 159.179 9.66408L158.559 14.7285C158.524 14.9008 158.438 15.0558 158.3 15.1936C158.197 15.297 158.059 15.3487 157.887 15.3487H150.238C150.169 15.3487 150.101 15.3831 150.032 15.452C149.997 15.4865 149.98 15.5382 149.98 15.6071L146.414 44.5985C146.38 44.7708 146.294 44.9258 146.156 45.0636C146.052 45.167 145.915 45.2186 145.742 45.2186H139.903C139.524 45.2186 139.334 45.0119 139.334 44.5985L142.9 15.6071C142.969 15.4348 142.9 15.3487 142.693 15.3487H135.303C135.131 15.3487 134.993 15.297 134.89 15.1936C134.787 15.0558 134.752 14.9008 134.787 14.7285L135.407 9.66408C135.441 9.49182 135.51 9.35402 135.613 9.25066C135.751 9.11285 135.906 9.04395 136.079 9.04395H158.662Z" fill="white" style="fill:white;fill-opacity:1;"/>
<path d="M112.615 45.1669C112.443 45.1669 112.305 45.1153 112.202 45.0119C112.099 44.8741 112.064 44.7191 112.099 44.5468L113.752 31.3172L113.701 31.0071L107.654 9.76744L107.603 9.56073C107.603 9.21621 107.792 9.04395 108.171 9.04395H114.528C114.907 9.04395 115.113 9.21621 115.148 9.56073L118.197 22.6353C118.231 22.7386 118.283 22.7903 118.352 22.7903C118.421 22.7903 118.472 22.7386 118.507 22.6353L124.76 9.56073C124.898 9.21621 125.156 9.04395 125.535 9.04395H131.84C132.081 9.04395 132.219 9.11285 132.253 9.25066C132.322 9.38847 132.305 9.56073 132.201 9.76744L120.884 31.0071L120.781 31.3172L119.179 44.5468C119.144 44.7191 119.058 44.8741 118.92 45.0119C118.817 45.1153 118.679 45.1669 118.507 45.1669H112.615Z" fill="white" style="fill:white;fill-opacity:1;"/>
<path d="M97.46 45.2186C97.081 45.2186 96.8743 45.0464 96.8399 44.7018L96.2714 39.6374C96.2714 39.4996 96.2025 39.4307 96.0647 39.4307H86.711C86.6076 39.4307 86.5042 39.4996 86.4009 39.6374L84.6438 44.7018C84.506 45.0464 84.2649 45.2186 83.9203 45.2186H77.874C77.3917 45.2186 77.2539 44.9947 77.4606 44.5468L90.7418 9.56073C90.8797 9.21621 91.138 9.04395 91.517 9.04395H98.8036C99.1826 9.04395 99.3893 9.21621 99.4238 9.56073L104.178 44.5468C104.178 44.9947 103.971 45.2186 103.558 45.2186H97.46ZM88.5197 33.4877C88.4852 33.6944 88.5541 33.7978 88.7264 33.7978H95.3412C95.5479 33.7978 95.6513 33.6944 95.6513 33.4877L93.9976 18.501C93.9976 18.3632 93.9631 18.2943 93.8942 18.2943C93.8253 18.2943 93.7736 18.3632 93.7392 18.501L88.5197 33.4877Z" fill="white" style="fill:white;fill-opacity:1;"/>
<path d="M62.8368 45.6314C59.6328 45.6314 57.1006 44.839 55.2401 43.2542C53.3797 41.6694 52.4495 39.5678 52.4495 36.9495C52.4495 36.6739 52.484 36.1915 52.5529 35.5025L52.7079 34.1589C52.7424 33.9866 52.8113 33.8488 52.9146 33.7454C53.0524 33.6076 53.2075 33.5387 53.3797 33.5387H59.1677C59.3399 33.5387 59.4777 33.6076 59.5811 33.7454C59.6845 33.8488 59.7189 33.9866 59.6845 34.1589L59.5294 35.1408C59.3916 36.381 59.7017 37.3974 60.4596 38.1898C61.252 38.9822 62.3717 39.3784 63.8187 39.3784C65.2312 39.3784 66.3337 38.9822 67.1261 38.1898C67.953 37.3974 68.3664 36.3983 68.3664 35.1924C68.3664 34.2622 67.9702 33.4698 67.1778 32.8152C66.4198 32.1262 64.9901 31.196 62.8885 30.0246C61.1314 29.0255 59.7017 28.1298 58.5992 27.3374C57.5312 26.545 56.601 25.5459 55.8086 24.34C55.0507 23.0998 54.6717 21.6183 54.6717 19.8957C54.6717 17.6563 55.2057 15.6926 56.2737 14.0044C57.3417 12.2818 58.8059 10.9554 60.6663 10.0252C62.5612 9.09498 64.6628 8.62988 66.9711 8.62988C70.1062 8.62988 72.604 9.45673 74.4644 11.1104C76.3248 12.7297 77.255 14.9174 77.255 17.6736C77.255 17.9492 77.2206 18.4315 77.1517 19.1205L77.0483 20.1541C77.0139 20.3264 76.9277 20.4814 76.7899 20.6192C76.6866 20.7226 76.5488 20.7742 76.3765 20.7742H70.5885C70.4163 20.7742 70.2785 20.7226 70.1751 20.6192C70.0718 20.4814 70.0373 20.3264 70.0718 20.1541L70.1751 19.2239C70.2096 19.0861 70.2268 18.8794 70.2268 18.6038C70.2268 17.5357 69.8478 16.6572 69.0899 15.9682C68.3664 15.2447 67.35 14.8829 66.0409 14.8829C64.7661 14.8829 63.7154 15.2619 62.8885 16.0199C62.0961 16.7433 61.6999 17.7597 61.6999 19.0689C61.6999 20.0335 62.0961 20.8604 62.8885 21.5494C63.6809 22.2385 65.1451 23.1687 67.2811 24.34L68.3147 24.9602C69.9684 26.0282 71.2604 26.9239 72.1906 27.6474C73.1208 28.3709 73.8959 29.2494 74.5161 30.283C75.1362 31.3166 75.4463 32.5569 75.4463 34.0038C75.4463 34.3139 75.4118 34.779 75.3429 35.3991C74.964 38.5343 73.6375 41.0321 71.3637 42.8925C69.0899 44.7184 66.2476 45.6314 62.8368 45.6314Z" fill="white" style="fill:white;fill-opacity:1;"/>
<path d="M52.3635 14.6769C52.329 14.8491 52.2429 15.0042 52.1051 15.142C52.0017 15.2453 51.8639 15.297 51.6916 15.297H38.307C38.1692 15.297 38.0659 15.3831 37.9969 15.5554L37.0151 23.6172C37.0151 23.7894 37.084 23.8756 37.2218 23.8756H45.542C45.9209 23.8756 46.1104 24.0823 46.1104 24.4957L45.4903 29.5085C45.4558 29.6807 45.3697 29.8358 45.2319 29.9736C45.1285 30.0769 44.9907 30.1286 44.8185 30.1286H36.4466C36.3777 30.1286 36.3088 30.1631 36.2399 30.232C36.2054 30.2664 36.1882 30.3181 36.1882 30.387L34.4312 44.5985C34.3967 44.7708 34.3106 44.9258 34.1728 45.0636C34.0694 45.167 33.9316 45.2186 33.7593 45.2186H27.9197C27.5407 45.2186 27.3513 45.0119 27.3513 44.5985L31.6405 9.66408C31.675 9.49182 31.7611 9.35402 31.8989 9.25066C32.0367 9.11285 32.1918 9.04395 32.364 9.04395H52.4668C52.6391 9.04395 52.7769 9.11285 52.8802 9.25066C52.9836 9.35402 53.0181 9.49182 52.9836 9.66408L52.3635 14.6769Z" fill="white" style="fill:white;fill-opacity:1;"/>
<path d="M10.2839 45.6831C7.11435 45.6831 4.59935 44.8046 2.73894 43.0475C0.91298 41.256 0 38.8616 0 35.8643C0 35.0374 0.034452 34.4173 0.103356 34.0038L1.80873 20.2575C2.08435 17.9492 2.80784 15.9165 3.97921 14.1594C5.15059 12.4024 6.66648 11.0415 8.52689 10.0769C10.4218 9.11221 12.5233 8.62988 14.8316 8.62988C18.0357 8.62988 20.5679 9.52564 22.4283 11.3171C24.2887 13.0742 25.2189 15.4686 25.2189 18.5004C25.2189 18.8449 25.1845 19.4306 25.1156 20.2575L23.4102 34.0038C23.1346 36.3466 22.3938 38.3965 21.188 40.1535C20.0167 41.9106 18.4835 43.2714 16.5887 44.2361C14.6938 45.2008 12.5922 45.6831 10.2839 45.6831ZM11.0591 39.43C12.4372 39.43 13.6086 38.9649 14.5732 38.0347C15.5379 37.0701 16.1236 35.8298 16.3303 34.3139L18.0357 20.0507C18.0701 19.844 18.0873 19.5167 18.0873 19.0689C18.0873 17.7941 17.7256 16.7778 17.0021 16.0199C16.2786 15.2619 15.2967 14.8829 14.0564 14.8829C12.6784 14.8829 11.507 15.3653 10.5423 16.3299C9.61213 17.2601 9.0609 18.5004 8.88864 20.0507L7.13158 34.3139C7.09713 34.5206 7.0799 34.8135 7.0799 35.1924C7.0799 36.4672 7.42442 37.5007 8.11346 38.2931C8.83696 39.0511 9.81884 39.43 11.0591 39.43Z" fill="white" style="fill:white;fill-opacity:1;"/>
<path d="M165.802 0H280.002L275.695 53.8314H161.496L165.802 0Z" fill="#00A76F" style="fill:#00A76F;fill:color(display-p3 0.0000 0.6549 0.4353);fill-opacity:1;"/>
<path d="M259.275 33.2215C259.095 33.2215 258.952 33.1677 258.844 33.06C258.737 32.9165 258.701 32.755 258.737 32.5756L260.836 9.10508C260.872 8.92565 260.944 8.7821 261.051 8.67443C261.195 8.53088 261.356 8.45911 261.536 8.45911H267.673C267.852 8.45911 267.996 8.53088 268.103 8.67443C268.211 8.7821 268.247 8.92565 268.211 9.10508L264.604 32.5756C264.568 32.755 264.479 32.9165 264.335 33.06C264.227 33.1677 264.084 33.2215 263.904 33.2215H259.275ZM260.082 46.0872C259.006 46.0872 258.126 45.7463 257.445 45.0644C256.763 44.3826 256.422 43.5213 256.422 42.4805C256.422 41.045 256.87 39.8787 257.768 38.9815C258.665 38.0484 259.777 37.5819 261.105 37.5819C262.218 37.5819 263.097 37.9049 263.743 38.5508C264.389 39.1968 264.712 40.0581 264.712 41.1348C264.712 42.4985 264.245 43.6648 263.312 44.6338C262.415 45.6028 261.338 46.0872 260.082 46.0872Z" fill="white" style="fill:white;fill-opacity:1;"/>
<path d="M226.298 45.2183C225.919 45.2183 225.73 45.0115 225.73 44.5981L230.019 9.66372C230.054 9.49146 230.14 9.35365 230.278 9.25029C230.415 9.11248 230.57 9.04358 230.743 9.04358H236.582C236.755 9.04358 236.892 9.11248 236.996 9.25029C237.099 9.35365 237.133 9.49146 237.099 9.66372L235.445 23.4101C235.411 23.5135 235.428 23.5824 235.497 23.6168C235.6 23.6513 235.669 23.6168 235.704 23.5135L246.401 9.457C246.608 9.18139 246.866 9.04358 247.176 9.04358H253.636C253.946 9.04358 254.101 9.14694 254.101 9.35365C254.101 9.457 254.049 9.59481 253.946 9.76707L242.835 24.5987C242.801 24.6676 242.784 24.7882 242.784 24.9604L250.225 44.4948C250.26 44.5637 250.277 44.6498 250.277 44.7532C250.277 45.0632 250.087 45.2183 249.709 45.2183H243.249C242.939 45.2183 242.732 45.0632 242.629 44.7532L237.254 30.5934C237.151 30.3866 237.03 30.3866 236.892 30.5934L234.205 33.9524C234.136 34.0902 234.102 34.1936 234.102 34.2625L232.81 44.5981C232.775 44.7704 232.689 44.9254 232.551 45.0632C232.448 45.1666 232.31 45.2183 232.138 45.2183H226.298Z" fill="white" style="fill:white;fill-opacity:1;"/>
<path d="M208.663 45.6827C205.493 45.6827 202.978 44.8042 201.118 43.0471C199.292 41.2556 198.379 38.8612 198.379 35.8639C198.379 35.037 198.413 34.4169 198.482 34.0035L200.187 20.2571C200.463 17.9488 201.186 15.9161 202.358 14.1591C203.529 12.402 205.045 11.0412 206.905 10.0765C208.8 9.11185 210.902 8.62952 213.21 8.62952C216.414 8.62952 218.946 9.52527 220.807 11.3168C222.667 13.0738 223.598 15.4683 223.598 18.5C223.598 18.8446 223.563 19.4302 223.494 20.2571L221.789 34.0035C221.513 36.3462 220.772 38.3961 219.567 40.1532C218.395 41.9102 216.862 43.2711 214.967 44.2357C213.072 45.2004 210.971 45.6827 208.663 45.6827ZM209.438 39.4297C210.816 39.4297 211.987 38.9646 212.952 38.0344C213.916 37.0697 214.502 35.8294 214.709 34.3135L216.414 20.0504C216.449 19.8437 216.466 19.5164 216.466 19.0685C216.466 17.7938 216.104 16.7774 215.381 16.0195C214.657 15.2615 213.675 14.8826 212.435 14.8826C211.057 14.8826 209.886 15.3649 208.921 16.3296C207.991 17.2598 207.439 18.5 207.267 20.0504L205.51 34.3135C205.476 34.5203 205.459 34.8131 205.459 35.1921C205.459 36.4668 205.803 37.5004 206.492 38.2928C207.216 39.0507 208.197 39.4297 209.438 39.4297Z" fill="white" style="fill:white;fill-opacity:1;"/>
<path d="M179.42 45.1666C179.247 45.1666 179.11 45.1149 179.006 45.0115C178.903 44.8737 178.868 44.7187 178.903 44.5464L180.557 31.3168L180.505 31.0068L174.459 9.76707L174.407 9.56036C174.407 9.21584 174.596 9.04358 174.975 9.04358H181.332C181.711 9.04358 181.917 9.21584 181.952 9.56036L185.001 22.6349C185.035 22.7383 185.087 22.79 185.156 22.79C185.225 22.79 185.276 22.7383 185.311 22.6349L191.564 9.56036C191.702 9.21584 191.96 9.04358 192.339 9.04358H198.644C198.885 9.04358 199.023 9.11248 199.057 9.25029C199.126 9.3881 199.109 9.56036 199.006 9.76707L187.688 31.0068L187.585 31.3168L185.983 44.5464C185.948 44.7187 185.862 44.8737 185.724 45.0115C185.621 45.1149 185.483 45.1666 185.311 45.1666H179.42Z" fill="white" style="fill:white;fill-opacity:1;"/>
<path d="M218.151 16.149L202.002 39.8348" stroke="white" style="stroke:white;stroke-opacity:1;" stroke-width="5.38314"/>
</svg>
