<svg width="146" height="28" viewBox="0 0 146 28" fill="none" xmlns="http://www.w3.org/2000/svg">
<path d="M82.5268 4.7041C82.6164 4.7041 82.6881 4.73994 82.7419 4.81162C82.7956 4.86538 82.8136 4.93706 82.7956 5.02666L82.4731 7.6609C82.4552 7.7505 82.4104 7.83114 82.3387 7.90282C82.2849 7.95658 82.2132 7.98346 82.1236 7.98346H78.1454C78.1096 7.98346 78.0737 8.00138 78.0379 8.03722C78.02 8.05514 78.011 8.08202 78.011 8.11786L76.1563 23.1975C76.1384 23.2871 76.0936 23.3678 76.0219 23.4395C75.9681 23.4932 75.8964 23.5201 75.8068 23.5201H72.7694C72.5723 23.5201 72.4737 23.4126 72.4737 23.1975L74.3284 8.11786C74.3643 8.02826 74.3284 7.98346 74.2209 7.98346H70.3771C70.2875 7.98346 70.2158 7.95658 70.162 7.90282C70.1083 7.83114 70.0904 7.7505 70.1083 7.6609L70.4308 5.02666C70.4488 4.93706 70.4846 4.86538 70.5384 4.81162C70.61 4.73994 70.6907 4.7041 70.7803 4.7041H82.5268Z" fill="white" style="fill:white;fill-opacity:1;"/>
<path d="M58.5761 23.4932C58.4865 23.4932 58.4148 23.4663 58.3611 23.4126C58.3073 23.3409 58.2894 23.2603 58.3073 23.1707L59.1675 16.2894L59.1406 16.1281L55.9956 5.08042L55.9688 4.9729C55.9688 4.7937 56.0673 4.7041 56.2644 4.7041H59.5707C59.7678 4.7041 59.8753 4.7937 59.8932 4.9729L61.4791 11.7735C61.4971 11.8273 61.524 11.8542 61.5598 11.8542C61.5956 11.8542 61.6225 11.8273 61.6404 11.7735L64.8929 4.9729C64.9646 4.7937 65.099 4.7041 65.2961 4.7041H68.5755C68.7009 4.7041 68.7726 4.73994 68.7905 4.81162C68.8263 4.8833 68.8174 4.9729 68.7636 5.08042L62.8769 16.1281L62.8231 16.2894L61.9899 23.1707C61.9719 23.2603 61.9271 23.3409 61.8555 23.4126C61.8017 23.4663 61.73 23.4932 61.6404 23.4932H58.5761Z" fill="white" style="fill:white;fill-opacity:1;"/>
<path d="M50.6931 23.5201C50.496 23.5201 50.3885 23.4305 50.3706 23.2513L50.0749 20.6171C50.0749 20.5454 50.0391 20.5095 49.9674 20.5095H45.1021C45.0483 20.5095 44.9946 20.5454 44.9408 20.6171L44.0269 23.2513C43.9552 23.4305 43.8298 23.5201 43.6506 23.5201H40.5056C40.2547 23.5201 40.1831 23.4036 40.2906 23.1707L47.1987 4.9729C47.2704 4.7937 47.4048 4.7041 47.6019 4.7041H51.392C51.5891 4.7041 51.6967 4.7937 51.7146 4.9729L54.1875 23.1707C54.1875 23.4036 54.08 23.5201 53.865 23.5201H50.6931ZM46.0429 17.4183C46.025 17.5259 46.0608 17.5796 46.1504 17.5796H49.5911C49.6986 17.5796 49.7523 17.5259 49.7523 17.4183L48.8922 9.62314C48.8922 9.55146 48.8743 9.51562 48.8384 9.51562C48.8026 9.51562 48.7757 9.55146 48.7578 9.62314L46.0429 17.4183Z" fill="white" style="fill:white;fill-opacity:1;"/>
<path d="M32.6841 23.7348C31.0176 23.7348 29.7004 23.3227 28.7328 22.4984C27.7651 21.674 27.2812 20.5809 27.2812 19.219C27.2812 19.0757 27.2992 18.8248 27.335 18.4664L27.4157 17.7675C27.4336 17.6779 27.4694 17.6062 27.5232 17.5524C27.5948 17.4808 27.6755 17.4449 27.7651 17.4449H30.7757C30.8653 17.4449 30.9369 17.4808 30.9907 17.5524C31.0445 17.6062 31.0624 17.6779 31.0445 17.7675L30.9638 18.2782C30.8921 18.9233 31.0534 19.452 31.4476 19.8641C31.8598 20.2763 32.4422 20.4824 33.1949 20.4824C33.9296 20.4824 34.503 20.2763 34.9152 19.8641C35.3453 19.452 35.5603 18.9323 35.5603 18.3051C35.5603 17.8212 35.3542 17.4091 34.9421 17.0686C34.5478 16.7102 33.8041 16.2264 32.711 15.6171C31.7971 15.0974 31.0534 14.6315 30.48 14.2193C29.9245 13.8072 29.4406 13.2875 29.0284 12.6603C28.6342 12.0152 28.4371 11.2446 28.4371 10.3486C28.4371 9.18381 28.7149 8.16237 29.2704 7.28429C29.8259 6.38829 30.5875 5.69837 31.5552 5.21453C32.5408 4.73069 33.6339 4.48877 34.8345 4.48877C36.4653 4.48877 37.7645 4.91885 38.7321 5.77901C39.6998 6.62125 40.1836 7.75917 40.1836 9.19277C40.1836 9.33613 40.1657 9.58701 40.1299 9.94541L40.0761 10.483C40.0582 10.5726 40.0134 10.6532 39.9417 10.7249C39.888 10.7787 39.8163 10.8056 39.7267 10.8056H36.7161C36.6265 10.8056 36.5549 10.7787 36.5011 10.7249C36.4473 10.6532 36.4294 10.5726 36.4473 10.483L36.5011 9.99917C36.519 9.92749 36.528 9.81997 36.528 9.67661C36.528 9.12109 36.3308 8.66413 35.9366 8.30573C35.5603 7.92941 35.0317 7.74125 34.3507 7.74125C33.6877 7.74125 33.1411 7.93837 32.711 8.33261C32.2988 8.70893 32.0928 9.23757 32.0928 9.91853C32.0928 10.4203 32.2988 10.8504 32.711 11.2088C33.1232 11.5672 33.8848 12.051 34.9958 12.6603L35.5334 12.9828C36.3936 13.5384 37.0656 14.0043 37.5494 14.3806C38.0333 14.7569 38.4364 15.2139 38.759 15.7515C39.0816 16.2891 39.2429 16.9342 39.2429 17.6868C39.2429 17.8481 39.2249 18.09 39.1891 18.4126C38.992 20.0433 38.302 21.3425 37.1193 22.3102C35.9366 23.26 34.4582 23.7348 32.6841 23.7348Z" fill="white" style="fill:white;fill-opacity:1;"/>
<path d="M27.2365 7.63402C27.2186 7.72362 27.1738 7.80426 27.1021 7.87594C27.0483 7.9297 26.9766 7.95658 26.887 7.95658H19.9251C19.8534 7.95658 19.7997 8.00138 19.7638 8.09098L19.2531 12.2843C19.2531 12.3739 19.289 12.4187 19.3606 12.4187H23.6883C23.8854 12.4187 23.984 12.5262 23.984 12.7412L23.6614 15.3486C23.6435 15.4382 23.5987 15.5188 23.527 15.5905C23.4733 15.6443 23.4016 15.6711 23.312 15.6711H18.9574C18.9216 15.6711 18.8858 15.6891 18.8499 15.7249C18.832 15.7428 18.823 15.7697 18.823 15.8055L17.9091 23.1975C17.8912 23.2871 17.8464 23.3678 17.7747 23.4395C17.721 23.4932 17.6493 23.5201 17.5597 23.5201H14.5222C14.3251 23.5201 14.2266 23.4126 14.2266 23.1975L16.4576 5.02666C16.4755 4.93706 16.5203 4.86538 16.592 4.81162C16.6637 4.73994 16.7443 4.7041 16.8339 4.7041H27.2902C27.3798 4.7041 27.4515 4.73994 27.5053 4.81162C27.559 4.86538 27.577 4.93706 27.559 5.02666L27.2365 7.63402Z" fill="white" style="fill:white;fill-opacity:1;"/>
<path d="M5.34912 23.7617C3.70048 23.7617 2.39232 23.3048 1.42464 22.3909C0.47488 21.459 0 20.2136 0 18.6545C0 18.2245 0.01792 17.9019 0.05376 17.6868L0.9408 10.5368C1.08416 9.33613 1.46048 8.27885 2.06976 7.36493C2.67904 6.45101 3.46752 5.74317 4.4352 5.24141C5.4208 4.73965 6.51392 4.48877 7.71456 4.48877C9.38112 4.48877 10.6982 4.95469 11.6659 5.88653C12.6336 6.80045 13.1174 8.04589 13.1174 9.62285C13.1174 9.80205 13.0995 10.1067 13.0637 10.5368L12.1766 17.6868C12.0333 18.9054 11.648 19.9717 11.0208 20.8856C10.4115 21.7995 9.61408 22.5073 8.62848 23.0091C7.64288 23.5109 6.54976 23.7617 5.34912 23.7617ZM5.75232 20.5093C6.46912 20.5093 7.0784 20.2673 7.58016 19.7835C8.08192 19.2817 8.38656 18.6366 8.49408 17.8481L9.38112 10.4292C9.39904 10.3217 9.408 10.1515 9.408 9.91853C9.408 9.25549 9.21984 8.72685 8.84352 8.33261C8.4672 7.93837 7.95648 7.74125 7.31136 7.74125C6.59456 7.74125 5.98528 7.99213 5.48352 8.49389C4.99968 8.97773 4.71296 9.62285 4.62336 10.4292L3.70944 17.8481C3.69152 17.9556 3.68256 18.108 3.68256 18.3051C3.68256 18.9681 3.86176 19.5057 4.22016 19.9179C4.59648 20.3121 5.1072 20.5093 5.75232 20.5093Z" fill="white" style="fill:white;fill-opacity:1;"/>
<path d="M86.24 0H145.64L143.4 28H84L86.24 0Z" fill="black" style="fill:black;fill-opacity:1;"/>
<path d="M134.859 17.2799C134.766 17.2799 134.691 17.2519 134.635 17.1959C134.579 17.1212 134.56 17.0372 134.579 16.9439L135.671 4.7359C135.69 4.64257 135.727 4.5679 135.783 4.5119C135.858 4.43724 135.942 4.3999 136.035 4.3999H139.227C139.32 4.3999 139.395 4.43724 139.451 4.5119C139.507 4.5679 139.526 4.64257 139.507 4.7359L137.631 16.9439C137.612 17.0372 137.566 17.1212 137.491 17.1959C137.435 17.2519 137.36 17.2799 137.267 17.2799H134.859ZM135.279 23.9719C134.719 23.9719 134.262 23.7946 133.907 23.4399C133.552 23.0852 133.375 22.6372 133.375 22.0959C133.375 21.3492 133.608 20.7426 134.075 20.2759C134.542 19.7906 135.12 19.5479 135.811 19.5479C136.39 19.5479 136.847 19.7159 137.183 20.0519C137.519 20.3879 137.687 20.8359 137.687 21.3959C137.687 22.1052 137.444 22.7119 136.959 23.2159C136.492 23.7199 135.932 23.9719 135.279 23.9719Z" fill="white" style="fill:white;fill-opacity:1;"/>
<path d="M117.71 23.5201C117.513 23.5201 117.414 23.4126 117.414 23.1975L119.645 5.02666C119.663 4.93706 119.708 4.86538 119.78 4.81162C119.851 4.73994 119.932 4.7041 120.021 4.7041H123.059C123.148 4.7041 123.22 4.73994 123.274 4.81162C123.328 4.86538 123.346 4.93706 123.328 5.02666L122.468 12.1767C122.45 12.2305 122.459 12.2663 122.494 12.2843C122.548 12.3022 122.584 12.2843 122.602 12.2305L128.166 4.91914C128.274 4.77578 128.408 4.7041 128.569 4.7041H131.929C132.091 4.7041 132.171 4.75786 132.171 4.86538C132.171 4.91914 132.144 4.99082 132.091 5.08042L126.311 12.795C126.293 12.8308 126.284 12.8935 126.284 12.9831L130.155 23.1438C130.173 23.1796 130.182 23.2244 130.182 23.2782C130.182 23.4395 130.084 23.5201 129.886 23.5201H126.526C126.365 23.5201 126.258 23.4395 126.204 23.2782L123.408 15.9131C123.355 15.8055 123.292 15.8055 123.22 15.9131L121.822 17.6603C121.787 17.7319 121.769 17.7857 121.769 17.8215L121.097 23.1975C121.079 23.2871 121.034 23.3678 120.962 23.4395C120.908 23.4932 120.837 23.5201 120.747 23.5201H117.71Z" fill="white" style="fill:white;fill-opacity:1;"/>
<path d="M108.537 23.7617C106.888 23.7617 105.58 23.3048 104.612 22.3909C103.662 21.459 103.188 20.2136 103.188 18.6545C103.188 18.2245 103.205 17.9019 103.241 17.6868L104.128 10.5368C104.272 9.33613 104.648 8.27885 105.257 7.36493C105.867 6.45101 106.655 5.74317 107.623 5.24141C108.608 4.73965 109.701 4.48877 110.902 4.48877C112.569 4.48877 113.886 4.95469 114.853 5.88653C115.821 6.80045 116.305 8.04589 116.305 9.62285C116.305 9.80205 116.287 10.1067 116.251 10.5368L115.364 17.6868C115.221 18.9054 114.835 19.9717 114.208 20.8856C113.599 21.7995 112.802 22.5073 111.816 23.0091C110.83 23.5109 109.737 23.7617 108.537 23.7617ZM108.94 20.5093C109.657 20.5093 110.266 20.2673 110.768 19.7835C111.269 19.2817 111.574 18.6366 111.682 17.8481L112.569 10.4292C112.587 10.3217 112.595 10.1515 112.595 9.91853C112.595 9.25549 112.407 8.72685 112.031 8.33261C111.655 7.93837 111.144 7.74125 110.499 7.74125C109.782 7.74125 109.173 7.99213 108.671 8.49389C108.187 8.97773 107.9 9.62285 107.811 10.4292L106.897 17.8481C106.879 17.9556 106.87 18.108 106.87 18.3051C106.87 18.9681 107.049 19.5057 107.408 19.9179C107.784 20.3121 108.295 20.5093 108.94 20.5093Z" fill="white" style="fill:white;fill-opacity:1;"/>
<path d="M93.3261 23.4932C93.2365 23.4932 93.1648 23.4663 93.1111 23.4126C93.0573 23.3409 93.0394 23.2603 93.0573 23.1707L93.9175 16.2894L93.8906 16.1281L90.7456 5.08042L90.7188 4.9729C90.7188 4.7937 90.8173 4.7041 91.0144 4.7041H94.3207C94.5178 4.7041 94.6253 4.7937 94.6432 4.9729L96.2292 11.7735C96.2471 11.8273 96.274 11.8542 96.3098 11.8542C96.3456 11.8542 96.3725 11.8273 96.3904 11.7735L99.6429 4.9729C99.7146 4.7937 99.849 4.7041 100.046 4.7041H103.325C103.451 4.7041 103.523 4.73994 103.541 4.81162C103.576 4.8833 103.567 4.9729 103.514 5.08042L97.6269 16.1281L97.5732 16.2894L96.7399 23.1707C96.722 23.2603 96.6772 23.3409 96.6055 23.4126C96.5517 23.4663 96.48 23.4932 96.3904 23.4932H93.3261Z" fill="white" style="fill:white;fill-opacity:1;"/>
<path d="M113.47 8.40002L105.07 20.72" stroke="white" style="stroke:white;stroke-opacity:1;" stroke-width="2.8"/>
</svg>
