<svg width="400" height="400" viewBox="0 0 400 400" fill="none" xmlns="http://www.w3.org/2000/svg">
<rect width="400" height="400" fill="#00A76F" style="fill:#00A76F;fill:color(display-p3 0.0000 0.6549 0.4353);fill-opacity:1;"/>
<g clip-path="url(#clip0_1434_11569)">
<path d="M263.11 205.795L260.243 219.647L256.012 233.5H246.284L247.905 219.647L250.772 205.795H263.11ZM251.508 235.986C252.892 235.986 253.934 236.361 254.633 237.111C255.371 237.861 255.589 238.986 255.286 240.485L254.761 242.912C254.506 244.294 253.98 245.32 253.181 245.991C252.386 246.622 251.237 246.938 249.734 246.938H247.361C244.277 246.938 243.018 245.438 243.583 242.439L244.049 240.012C244.633 237.328 246.328 235.986 249.136 235.986H251.508Z" fill="white" style="fill:white;fill-opacity:1;"/>
<path d="M247.255 206.091L234.614 223.14C233.913 224.127 233.147 224.896 232.317 225.449C231.488 226.001 230.749 226.396 230.099 226.633L230.023 226.87C230.56 227.106 231.116 227.639 231.691 228.468C232.266 229.297 232.701 230.145 232.996 231.013L239 246.938H225.12L218.811 226.041L233.019 206.091H247.255ZM223.647 206.091L221.254 217.398C221 218.779 220.563 220.22 219.944 221.719C219.367 223.179 218.596 224.6 217.629 225.982C217.978 227.205 218.163 228.527 218.182 229.948C218.201 231.369 218.071 232.671 217.79 233.855L215.037 246.938H202.106L210.716 206.091H223.647ZM223.333 221.601L221.627 229.889H214.924L216.63 221.601H223.333Z" fill="white" style="fill:white;fill-opacity:1;"/>
<path d="M185.849 205.262C190.357 205.262 193.951 205.893 196.631 207.156C199.311 208.419 201.034 210.629 201.802 213.786C202.612 216.904 202.443 221.305 201.294 226.988C200.448 231.171 199.396 234.624 198.138 237.347C196.919 240.071 195.427 242.182 193.661 243.682C191.896 245.181 189.785 246.247 187.328 246.878C184.914 247.47 182.106 247.766 178.903 247.766C174.197 247.766 170.524 247.135 167.884 245.872C165.286 244.57 163.662 242.34 163.013 239.183C162.364 236.025 162.611 231.645 163.754 226.04C164.637 221.897 165.686 218.483 166.902 215.799C168.121 213.076 169.594 210.945 171.323 209.406C173.052 207.866 175.104 206.801 177.478 206.209C179.856 205.577 182.646 205.262 185.849 205.262ZM185.064 214.793C183.64 214.793 182.471 215.108 181.557 215.74C180.683 216.371 179.928 217.555 179.292 219.292C178.657 221.028 177.943 223.594 177.152 226.988C176.46 230.105 176.077 232.473 176.003 234.091C175.93 235.71 176.208 236.815 176.839 237.407C177.473 237.959 178.482 238.235 179.866 238.235C181.368 238.235 182.557 237.92 183.432 237.288C184.306 236.657 185.061 235.473 185.697 233.736C186.374 231.96 187.088 229.395 187.836 226.04C188.529 222.923 188.911 220.574 188.981 218.996C189.055 217.378 188.776 216.273 188.146 215.681C187.515 215.089 186.487 214.793 185.064 214.793Z" fill="white" style="fill:white;fill-opacity:1;"/>
<path d="M167.881 206.091L148.197 234.802L135.863 234.743L128.198 206.091H141.011L143.24 219.174C143.434 220.358 143.497 221.423 143.431 222.37C143.405 223.318 143.34 224.245 143.237 225.153H144.126C144.263 224.324 144.526 223.397 144.914 222.37C145.305 221.305 145.772 220.279 146.316 219.292L154.179 206.091H167.881ZM149.833 227.521L145.806 246.938H132.875L136.961 227.521H149.833Z" fill="white" style="fill:white;fill-opacity:1;"/>
<path d="M346.879 152.829L338.269 193.676H325.397L334.007 152.829H346.879ZM358.209 152.829L356.174 162.419H320.702L322.737 152.829H358.209Z" fill="white" style="fill:white;fill-opacity:1;"/>
<path d="M322.712 152.829L303.028 181.54L290.694 181.481L283.029 152.829H295.842L298.071 165.912C298.265 167.096 298.329 168.162 298.262 169.109C298.236 170.056 298.171 170.983 298.068 171.891H298.957C299.094 171.062 299.357 170.135 299.745 169.109C300.136 168.043 300.603 167.017 301.147 166.03L309.01 152.829H322.712ZM304.664 174.259L300.637 193.676H287.706L291.793 174.259H304.664Z" fill="white" style="fill:white;fill-opacity:1;"/>
<path d="M272.988 152.829C274.017 152.829 274.903 153.165 275.647 153.835C276.391 154.506 276.786 155.355 276.833 156.381L279.504 193.676H266.632L266.372 166.859C266.348 166.07 266.363 165.3 266.415 164.55C266.468 163.801 266.54 163.051 266.632 162.301H264.971C264.808 162.932 264.6 163.643 264.347 164.432C264.137 165.182 263.846 165.951 263.474 166.741L251.566 193.676H238.22L256.639 155.907C257.106 154.881 257.753 154.112 258.58 153.599C259.407 153.086 260.334 152.829 261.362 152.829H272.988ZM273.348 175.68L271.626 185.033H250.094L251.875 175.68H273.348Z" fill="white" style="fill:white;fill-opacity:1;"/>
<path d="M229.535 152C231.828 152 234.249 152.158 236.798 152.474C239.386 152.789 241.799 153.342 244.037 154.131L242.339 162.301C241.155 162.261 239.753 162.241 238.131 162.241C236.55 162.241 234.889 162.241 233.149 162.241C231.412 162.202 229.693 162.182 227.992 162.182C227.32 162.182 226.744 162.222 226.264 162.301C225.787 162.34 225.386 162.419 225.061 162.537C224.737 162.656 224.467 162.833 224.253 163.07C224.081 163.267 223.944 163.524 223.843 163.84C223.784 164.116 223.785 164.392 223.844 164.669C223.944 164.945 224.181 165.221 224.558 165.497C224.934 165.774 225.503 166.109 226.267 166.504L232.92 169.76C235.099 170.825 236.721 171.95 237.785 173.134C238.849 174.318 239.485 175.679 239.694 177.219C239.945 178.718 239.882 180.475 239.504 182.487C238.93 185.605 237.987 188.052 236.677 189.828C235.369 191.564 233.504 192.788 231.082 193.498C228.702 194.169 225.535 194.505 221.58 194.505C219.88 194.505 217.577 194.347 214.673 194.031C211.806 193.755 208.838 193.222 205.769 192.433L207.58 183.494C209.871 183.533 211.983 183.592 213.915 183.671C215.889 183.711 217.547 183.75 218.889 183.79C220.234 183.79 221.163 183.79 221.677 183.79C222.903 183.79 223.856 183.73 224.537 183.612C225.257 183.494 225.783 183.316 226.116 183.079C226.491 182.803 226.732 182.468 226.839 182.073C226.943 181.718 226.944 181.422 226.842 181.185C226.779 180.948 226.597 180.731 226.294 180.534C225.994 180.297 225.577 180.04 225.043 179.764L217.826 176.094C215.612 174.949 213.976 173.746 212.918 172.483C211.862 171.18 211.228 169.779 211.017 168.28C210.805 166.78 210.856 165.201 211.17 163.544C211.604 161.294 212.269 159.42 213.165 157.92C214.1 156.42 215.309 155.256 216.79 154.427C218.274 153.559 220.077 152.947 222.198 152.592C224.321 152.197 226.767 152 229.535 152Z" fill="white" style="fill:white;fill-opacity:1;"/>
<path d="M190.143 152.593C193.662 152.593 197.238 152.633 200.871 152.712C204.503 152.791 207.669 153.047 210.367 153.481L208.318 162.42H194.675C193.608 162.42 192.824 162.598 192.325 162.953C191.828 163.269 191.489 163.88 191.307 164.788L185.253 193.677H172.322L179.07 161.651C179.661 158.849 180.962 156.638 182.974 155.02C184.985 153.402 187.374 152.593 190.143 152.593ZM178.531 169.346H204.631L202.967 177.871H176.69L178.531 169.346Z" fill="white" style="fill:white;fill-opacity:1;"/>
<path d="M156.243 152C160.751 152 164.345 152.631 167.025 153.894C169.705 155.157 171.428 157.367 172.196 160.525C173.006 163.642 172.837 168.043 171.688 173.726C170.842 177.909 169.79 181.363 168.532 184.086C167.313 186.809 165.821 188.92 164.055 190.42C162.29 191.92 160.179 192.985 157.722 193.617C155.308 194.209 152.5 194.505 149.297 194.505C144.591 194.505 140.918 193.873 138.278 192.61C135.68 191.308 134.056 189.078 133.407 185.921C132.758 182.764 133.005 178.383 134.148 172.779C135.031 168.635 136.08 165.221 137.296 162.537C138.515 159.814 139.988 157.683 141.717 156.144C143.446 154.605 145.498 153.539 147.872 152.947C150.25 152.316 153.04 152 156.243 152ZM155.458 161.531C154.034 161.531 152.865 161.847 151.951 162.478C151.077 163.11 150.322 164.294 149.686 166.03C149.051 167.767 148.337 170.332 147.547 173.726C146.854 176.844 146.471 179.212 146.397 180.83C146.324 182.448 146.602 183.553 147.233 184.145C147.867 184.697 148.876 184.974 150.26 184.974C151.762 184.974 152.951 184.658 153.826 184.026C154.7 183.395 155.455 182.211 156.091 180.475C156.769 178.699 157.482 176.133 158.23 172.779C158.923 169.661 159.305 167.313 159.375 165.734C159.449 164.116 159.17 163.011 158.54 162.419C157.909 161.827 156.882 161.531 155.458 161.531Z" fill="white" style="fill:white;fill-opacity:1;"/>
<path d="M122.788 165.341H122.787L117.906 193.217H117.907L115.571 206.556H115.57L108.352 247.77H94.9287L101.134 212.331L113.77 206.556H83.3116L81.7084 215.714H58.6654L58.6653 215.715H45.2415L54.7946 161.159H87.0534L88.6577 152.001H125.125L122.788 165.341ZM88.9263 174.499H65.8833L61.0015 202.374H79.8365L81.4407 193.217H104.482L109.364 165.341H90.5295L88.9263 174.499Z" fill="white" style="fill:white;fill-opacity:1;"/>
</g>
<defs>
<clipPath id="clip0_1434_11569">
<rect width="315" height="96" fill="white" style="fill:white;fill-opacity:1;" transform="translate(43 152)"/>
</clipPath>
</defs>
</svg>
